<?xml version="1.0" standalone="no"?>
<!DOCTYPE svg PUBLIC "-//W3C//DTD SVG 20010904//EN"
 "http://www.w3.org/TR/2001/REC-SVG-20010904/DTD/svg10.dtd">
<svg version="1.0" xmlns="http://www.w3.org/2000/svg"
 width="128.000000pt" height="128.000000pt" viewBox="0 0 128.000000 128.000000"
 preserveAspectRatio="xMidYMid meet">

<g transform="translate(0.000000,128.000000) scale(0.100000,-0.100000)"
fill="#000000" stroke="none">
<path d="M737 969 c-62 -41 -92 -90 -81 -131 11 -38 33 -48 41 -19 5 18 130
101 153 101 22 0 144 -82 156 -105 8 -16 14 -57 14 -99 0 -65 4 -81 40 -150
22 -42 40 -85 40 -95 0 -54 -83 -53 -193 2 -40 20 -142 77 -227 128 -287 171
-439 232 -499 200 -80 -43 -142 -287 -102 -404 15 -45 35 -57 94 -57 72 0 217
83 217 125 0 17 -34 55 -50 55 -5 0 -27 -15 -47 -33 -92 -82 -126 -88 -144
-27 -15 51 9 158 46 202 14 16 25 33 25 37 0 4 23 20 51 35 l50 28 47 -29 c33
-20 50 -39 58 -62 6 -19 22 -40 38 -48 24 -13 30 -12 65 7 l38 22 57 -32 c55
-32 86 -70 86 -108 0 -14 30 -33 118 -75 166 -80 215 -97 277 -97 65 0 88 18
106 82 21 79 -13 203 -88 316 -87 131 -241 262 -307 262 -20 0 -51 -12 -79
-31z"/>
<path d="M783 862 c-35 -20 -63 -39 -63 -42 0 -3 27 -20 61 -39 68 -37 80 -37
153 10 l49 31 -64 38 c-35 22 -66 39 -69 39 -3 0 -33 -16 -67 -37z"/>
<path d="M700 715 l0 -74 63 -36 c35 -19 67 -35 70 -35 4 0 7 33 7 74 l0 74
-61 36 c-33 20 -65 36 -70 36 -5 0 -9 -34 -9 -75z"/>
<path d="M918 754 l-58 -35 0 -74 c0 -41 3 -75 7 -75 3 0 35 16 70 35 l63 36
0 74 c0 54 -4 75 -12 74 -7 0 -39 -16 -70 -35z"/>
<path d="M527 605 c-63 -36 -63 -40 -15 -69 25 -14 50 -26 56 -26 7 0 33 13
58 29 l46 28 -49 28 c-26 15 -50 29 -53 30 -3 1 -22 -8 -43 -20z"/>
<path d="M450 482 l0 -60 46 -26 c26 -14 50 -26 55 -26 5 0 9 25 9 55 0 53 -1
55 -41 80 -69 44 -69 44 -69 -23z"/>
<path d="M623 512 c-43 -26 -43 -27 -43 -84 0 -32 3 -58 7 -58 18 0 91 52 95
67 6 24 -2 103 -11 102 -3 0 -25 -13 -48 -27z"/>
</g>
</svg>
